<svg width="4" height="24" viewBox="0 0 4 24" fill="none" xmlns="http://www.w3.org/2000/svg">
<path d="M0.784 16.792L0.464 0.599998H3.376L3.056 16.792H0.784ZM2 23.16C1.46667 23.16 1.01867 22.9893 0.656 22.648C0.314667 22.2853 0.144 21.848 0.144 21.336C0.144 20.824 0.314667 20.3973 0.656 20.056C1.01867 19.6933 1.46667 19.512 2 19.512C2.512 19.512 2.93867 19.6933 3.28 20.056C3.64267 20.3973 3.824 20.824 3.824 21.336C3.824 21.848 3.64267 22.2853 3.28 22.648C2.93867 22.9893 2.512 23.16 2 23.16Z" fill="white"/>
</svg>
