<svg width="19" height="17" viewBox="0 0 19 17" fill="none" xmlns="http://www.w3.org/2000/svg">
<path d="M18.2298 8.51281C18.2293 8.45575 18.2125 8.40003 18.1815 8.35217C18.1504 8.30431 18.1063 8.26631 18.0544 8.24264L1.22588 0.545252C1.17213 0.520662 1.11232 0.512497 1.05395 0.52178C0.995579 0.531063 0.94125 0.557381 0.897784 0.597431C0.854318 0.637481 0.82365 0.689479 0.80963 0.746897C0.795611 0.804314 0.798864 0.864594 0.818981 0.920169L3.18201 7.45633L10.1514 8.4374C10.322 8.46153 10.3242 8.70717 10.1541 8.73395L3.20373 9.84081L0.959012 16.4185C0.94078 16.472 0.938021 16.5296 0.951053 16.5845C0.964083 16.6395 0.992375 16.6897 1.03267 16.7293L1.04358 16.7396C1.13404 16.8196 1.26361 16.8379 1.37261 16.7861L18.0595 8.78631C18.1643 8.73572 18.2308 8.62905 18.2298 8.51281Z" fill="white"/>
</svg>
